<svg xmlns="http://www.w3.org/2000/svg" viewBox="0 0 711 646"><defs><style>.cls-1,.cls-12{fill:none;}.cls-1,.cls-12,.cls-13,.cls-2{stroke:#000;stroke-miterlimit:10;}.cls-1{stroke-width:15px;}.cls-2{font-size:200px;font-family:MarkerFelt-Wide, Marker Felt;}.cls-12,.cls-13,.cls-2{stroke-width:5px;}.cls-3{letter-spacing:0.04em;}.cls-4{letter-spacing:0.04em;}.cls-5{letter-spacing:0.02em;}.cls-6{letter-spacing:0.03em;}.cls-7{letter-spacing:0em;}.cls-8{letter-spacing:0.05em;}.cls-9{letter-spacing:0.05em;}.cls-10{letter-spacing:0.06em;}.cls-11,.cls-13{fill:#fff;}</style></defs><g id="Layer_2" data-name="Layer 2"><g id="Layer_1-2" data-name="Layer 1"><rect class="cls-1" x="7.5" y="7.5" width="696" height="631"/><text class="cls-2" transform="translate(48.91 201.95)">H<tspan class="cls-3" x="120" y="0">a</tspan><tspan class="cls-4" x="230.8" y="0">c</tspan><tspan class="cls-5" x="329.19" y="0">k</tspan><tspan class="cls-6" x="436.19" y="0">e</tspan><tspan class="cls-7" x="533.19" y="0">r</tspan><tspan class="cls-8" x="51.5" y="240">H</tspan><tspan class="cls-9" x="182.3" y="240">o</tspan><tspan class="cls-10" x="288.29" y="240">u</tspan><tspan x="399.69" y="240">rs</tspan></text><rect class="cls-11" x="181.5" y="464.15" width="327" height="152" rx="4"/><rect class="cls-12" x="181.5" y="464.15" width="327" height="152" rx="4"/><rect class="cls-13" x="203.22" y="487.15" width="286" height="91"/><rect class="cls-13" x="231.72" y="578.15" width="229" height="18"/><rect class="cls-13" x="203.22" y="536.15" width="286" height="4"/><rect class="cls-13" x="203.22" y="510.15" width="286" height="4"/><rect class="cls-13" x="203.22" y="558.15" width="286" height="4"/><line class="cls-12" x1="246.56" y1="580.15" x2="246.56" y2="596.15"/><line class="cls-12" x1="274.56" y1="580.15" x2="274.56" y2="594.15"/><line class="cls-12" x1="445.56" y1="580.15" x2="445.56" y2="594.15"/><line class="cls-12" x1="417.56" y1="580.15" x2="417.56" y2="597.15"/><line class="cls-12" x1="220.56" y1="487.65" x2="220.56" y2="509.65"/><line class="cls-12" x1="241.56" y1="487.65" x2="241.56" y2="509.65"/><line class="cls-12" x1="302.56" y1="487.65" x2="302.56" y2="509.65"/><line class="cls-12" x1="282.56" y1="487.65" x2="282.56" y2="509.65"/><line class="cls-12" x1="262.56" y1="487.65" x2="262.56" y2="509.65"/><line class="cls-12" x1="323.56" y1="487.65" x2="323.56" y2="509.65"/><line class="cls-12" x1="344.56" y1="487.65" x2="344.56" y2="509.65"/><line class="cls-12" x1="428.56" y1="487.65" x2="428.56" y2="509.65"/><line class="cls-12" x1="407.56" y1="487.65" x2="407.56" y2="509.65"/><line class="cls-12" x1="386.56" y1="487.65" x2="386.56" y2="509.65"/><line class="cls-12" x1="365.56" y1="487.65" x2="365.56" y2="509.65"/><line class="cls-12" x1="257.56" y1="558.65" x2="257.56" y2="580.65"/><line class="cls-12" x1="244.56" y1="540.65" x2="244.56" y2="562.65"/><line class="cls-12" x1="231.56" y1="516.65" x2="231.56" y2="538.65"/><line class="cls-12" x1="470.56" y1="487.65" x2="470.56" y2="509.65"/><line class="cls-12" x1="449.56" y1="487.65" x2="449.56" y2="509.65"/><line class="cls-12" x1="460.56" y1="513.65" x2="460.56" y2="535.65"/><line class="cls-12" x1="363.56" y1="516.65" x2="363.56" y2="538.65"/><line class="cls-12" x1="340.56" y1="513.65" x2="340.56" y2="535.65"/><line class="cls-12" x1="318.56" y1="513.65" x2="318.56" y2="535.65"/><line class="cls-12" x1="296.56" y1="513.65" x2="296.56" y2="535.65"/><line class="cls-12" x1="274.56" y1="513.65" x2="274.56" y2="535.65"/><line class="cls-12" x1="253.56" y1="513.65" x2="253.56" y2="535.65"/><line class="cls-12" x1="436.56" y1="558.65" x2="436.56" y2="580.65"/><line class="cls-12" x1="470.56" y1="558.65" x2="470.56" y2="580.65"/><line class="cls-12" x1="449.56" y1="536.65" x2="449.56" y2="558.65"/><line class="cls-12" x1="361.56" y1="535.65" x2="361.56" y2="557.65"/><line class="cls-12" x1="382.56" y1="538.65" x2="382.56" y2="560.65"/><line class="cls-12" x1="404.56" y1="542.65" x2="404.56" y2="564.65"/><line class="cls-12" x1="426.56" y1="538.65" x2="426.56" y2="560.65"/><line class="cls-12" x1="316.56" y1="540.65" x2="316.56" y2="562.65"/><line class="cls-12" x1="291.56" y1="542.65" x2="291.56" y2="564.65"/><line class="cls-12" x1="268.56" y1="535.65" x2="268.56" y2="557.65"/><line class="cls-12" x1="436.56" y1="513.65" x2="436.56" y2="535.65"/><line class="cls-12" x1="411.56" y1="513.65" x2="411.56" y2="535.65"/><line class="cls-12" x1="386.56" y1="513.65" x2="386.56" y2="535.65"/><line class="cls-12" x1="415.56" y1="556.65" x2="415.56" y2="578.65"/><line class="cls-12" x1="393.56" y1="558.65" x2="393.56" y2="580.65"/><line class="cls-12" x1="370.56" y1="556.65" x2="370.56" y2="578.65"/><line class="cls-12" x1="347.56" y1="558.65" x2="347.56" y2="580.65"/><line class="cls-12" x1="325.56" y1="558.65" x2="325.56" y2="580.65"/><line class="cls-12" x1="304.56" y1="558.65" x2="304.56" y2="580.65"/><line class="cls-12" x1="282.56" y1="556.65" x2="282.56" y2="578.65"/><line class="cls-12" x1="340.56" y1="540.65" x2="340.56" y2="562.65"/></g></g></svg>